<?xml version="1.0" standalone="no"?>
<!DOCTYPE svg PUBLIC "-//W3C//DTD SVG 20010904//EN"
 "http://www.w3.org/TR/2001/REC-SVG-20010904/DTD/svg10.dtd">
<svg version="1.0" xmlns="http://www.w3.org/2000/svg"
 width="720.000000pt" height="720.000000pt" viewBox="0 0 720.000000 720.000000"
 preserveAspectRatio="xMidYMid meet">
<metadata>
Created by potrace 1.15, written by Peter Selinger 2001-2017
</metadata>
<g transform="translate(0.000000,720.000000) scale(0.100000,-0.100000)"
fill="#000000" stroke="none">
<path d="M3957 6174 c-70 -22 -140 -93 -161 -163 -21 -70 -20 -103 4 -171 10
-30 16 -58 12 -61 -4 -4 -208 -165 -454 -358 -251 -197 -457 -351 -468 -351
-11 0 -30 -10 -42 -22 -16 -16 -228 -94 -692 -255 -616 -214 -670 -231 -689
-218 -30 21 -73 19 -97 -5 -24 -24 -26 -77 -5 -108 15 -20 -7 -116 -345 -1484
-199 -805 -363 -1470 -366 -1479 -3 -9 -20 -20 -38 -23 -58 -11 -100 -78 -89
-140 7 -36 54 -82 92 -89 62 -13 128 33 137 94 l6 37 599 202 598 202 31 -26
c46 -38 93 -35 136 8 24 24 34 43 34 65 0 36 -23 86 -44 98 -11 6 62 298 381
1523 284 1092 400 1521 414 1536 10 11 19 27 20 35 0 11 358 297 849 677 l69
53 41 -30 c95 -69 239 -59 328 23 33 29 69 103 77 158 17 113 -64 239 -176
272 -64 19 -99 19 -162 0z m-1492 -2675 c-212 -816 -390 -1501 -396 -1521 -8
-31 -14 -38 -35 -38 -35 0 -84 -51 -84 -87 l0 -28 -599 -202 -600 -202 -29 27
-30 28 223 899 c122 495 287 1160 365 1477 l143 578 33 19 c18 11 36 31 40 45
7 28 -69 0 779 294 314 109 571 198 573 196 2 -1 -171 -669 -383 -1485z"/>
<path d="M4206 3801 c-28 -30 -53 -109 -80 -247 -77 -399 -53 -564 82 -564 54
0 148 58 230 140 l78 78 15 -27 c18 -31 74 -61 113 -61 39 0 140 44 198 85 37
27 48 32 45 18 -3 -10 -19 -63 -36 -118 -41 -135 -71 -263 -71 -302 0 -31 21
-53 49 -53 18 0 51 77 51 117 0 51 37 198 109 437 65 212 70 246 45 267 -25
21 -46 -1 -75 -79 -51 -137 -119 -220 -222 -268 -63 -29 -101 -30 -127 -4 -28
28 -25 73 11 185 33 103 34 132 7 149 -28 17 -42 -7 -82 -137 -40 -132 -67
-174 -171 -260 -106 -88 -163 -97 -192 -29 -32 77 5 365 68 525 44 110 46 127
21 150 -24 22 -45 21 -66 -2z"/>
<path d="M5885 3528 c-131 -87 -250 -351 -201 -446 43 -84 125 -65 250 59 37
38 70 69 72 69 2 0 4 -8 4 -17 0 -10 11 -41 24 -70 37 -78 98 -102 172 -67 38
18 104 87 104 108 0 28 -21 27 -49 -2 -34 -38 -93 -51 -130 -31 -46 26 -63
142 -40 275 9 51 8 67 -4 90 -24 46 -52 67 -74 56 -10 -5 -27 -6 -38 -1 -32
12 -39 11 -90 -23z m116 -60 c33 -61 -35 -223 -128 -308 -30 -28 -63 -50 -74
-50 -26 0 -43 40 -35 82 8 43 66 165 106 223 48 70 109 95 131 53z"/>
<path d="M5232 3507 c-16 -19 -31 -93 -47 -240 -26 -228 -17 -284 41 -280 34
3 50 21 59 71 10 56 77 191 123 248 49 62 112 95 196 103 54 5 61 9 64 29 3
18 -4 26 -32 37 -119 50 -256 -43 -357 -243 -32 -64 -35 -53 -13 63 32 172 33
187 23 206 -11 22 -42 25 -57 6z"/>
</g>
</svg>
